{
  "accessors": [
    {
      "bufferView": 1,
      "componentType": 5126,
      "count": 47360,
      "max": [
        10.536589622497559,
        -8.5885200500488281,
        5.1622200012207031
      ],
      "min": [
        6.8329100608825684,
        -10.110560417175293,
        -4.0270900726318359
      ],
      "type": "VEC3"
    },
    {
      "bufferView": 1,
      "byteOffset": 568320,
      "componentType": 5126,
      "count": 47360,
      "max": [
        0.99998879432678223,
        0.99998080730438232,
        0.99996894598007202
      ],
      "min": [
        -0.99998819828033447,
        -0.99926835298538208,
        -0.99979108572006226
      ],
      "type": "VEC3"
    },
    {
      "bufferView": 0,
      "componentType": 5125,
      "count": 71040,
      "max": [
        47359
      ],
      "min": [
        0
      ],
      "type": "SCALAR"
    },
    {
      "bufferView": 1,
      "byteOffset": 1136640,
      "componentType": 5126,
      "count": 25218,
      "max": [
        16.251359939575195,
        9.3409795761108398,
        18.581609725952148
      ],
      "min": [
        -14.565589904785156,
        -10.160240173339844,
        -20.320959091186523
      ],
      "type": "VEC3"
    },
    {
      "bufferView": 1,
      "byteOffset": 1439256,
      "componentType": 5126,
      "count": 25218,
      "max": [
        0.99995130300521851,
        0.99999314546585083,
        0.99991989135742188
      ],
      "min": [
        -0.99995714426040649,
        -0.99988609552383423,
        -0.99905246496200562
      ],
      "type": "VEC3"
    },
    {
      "bufferView": 0,
      "byteOffset": 284160,
      "componentType": 5125,
      "count": 151296,
      "max": [
        25217
      ],
      "min": [
        0
      ],
      "type": "SCALAR"
    }
  ],
  "asset": {
    "extras": {
      "author": "Brighton413 (https://sketchfab.com/Brighton413)",
      "license": "CC-BY-NC-4.0 (http://creativecommons.org/licenses/by-nc/4.0/)",
      "source": "https://sketchfab.com/models/7e4d03106b334e9ca3c360cb70f7ccb3",
      "title": "Ditto"
    },
    "generator": "Sketchfab-3.43.3",
    "version": "2.0"
  },
  "bufferViews": [
    {
      "buffer": 0,
      "byteLength": 889344,
      "byteOffset": 0,
      "name": "floatBufferViews",
      "target": 34963
    },
    {
      "buffer": 0,
      "byteLength": 1741872,
      "byteOffset": 889344,
      "byteStride": 12,
      "name": "floatBufferViews",
      "target": 34962
    }
  ],
  "buffers": [
    {
      "byteLength": 2631216,
      "uri": "scene.bin"
    }
  ],
  "materials": [
    {
      "doubleSided": true,
      "emissiveFactor": [
        0,
        0,
        0
      ],
      "name": "Material",
      "pbrMetallicRoughness": {
        "baseColorFactor": [
          0,
          0,
          0,
          1
        ],
        "metallicFactor": 0,
        "roughnessFactor": 0.59999999999999998
      }
    },
    {
      "doubleSided": true,
      "emissiveFactor": [
        0,
        0,
        0
      ],
      "name": "Material.001",
      "pbrMetallicRoughness": {
        "baseColorFactor": [
          0.51990485190000002,
          0.26965230699999998,
          0.53822386259999999,
          1
        ],
        "metallicFactor": 0,
        "roughnessFactor": 0.59999999999999998
      }
    }
  ],
  "meshes": [
    {
      "name": "Ditto_0",
      "primitives": [
        {
          "attributes": {
            "NORMAL": 1,
            "POSITION": 0
          },
          "indices": 2,
          "material": 0,
          "mode": 4
        }
      ]
    },
    {
      "name": "Ditto_1",
      "primitives": [
        {
          "attributes": {
            "NORMAL": 4,
            "POSITION": 3
          },
          "indices": 5,
          "material": 1,
          "mode": 4
        }
      ]
    }
  ],
  "nodes": [
    {
      "children": [
        1
      ],
      "name": "RootNode (gltf orientation matrix)",
      "rotation": [
        -0.70710678118654746,
        -0,
        -0,
        0.70710678118654757
      ]
    },
    {
      "children": [
        2
      ],
      "name": "RootNode (model correction matrix)"
    },
    {
      "children": [
        3,
        5
      ],
      "name": "Root"
    },
    {
      "children": [
        4
      ],
      "matrix": [
        0.39064000000000004,
        0.84511000000000003,
        0.36494000000000004,
        0,
        -0.83754000000000006,
        0.16178000000000003,
        0.52187000000000006,
        0,
        0.38200000000000006,
        -0.50951999999999997,
        0.77102000000000004,
        0,
        5.6325599999999998,
        -7.471280000000001,
        11.37702,
        1
      ],
      "name": "Lamp"
    },
    {
      "name": "Lamp"
    },
    {
      "children": [
        6,
        7
      ],
      "matrix": [
        -0.028040000000000002,
        0.08661000000000002,
        0.23743000000000003,
        0,
        -0.14595000000000002,
        0.18948000000000004,
        -0.08635000000000001,
        0,
        -0.20633000000000001,
        -0.14580000000000001,
        0.028820000000000002,
        0,
        0.036260000000000001,
        -0.018170000000000002,
        1.57239,
        1
      ],
      "name": "Ditto"
    },
    {
      "mesh": 0,
      "name": "Ditto_0"
    },
    {
      "mesh": 1,
      "name": "Ditto_1"
    }
  ],
  "scene": 0,
  "scenes": [
    {
      "name": "OSG_Scene",
      "nodes": [
        0
      ]
    }
  ]
}

